<?xml version="1.0" encoding="UTF-8" standalone="no"?>
<!-- Generator: Adobe Illustrator 15.1.0, SVG Export Plug-In . SVG Version: 6.00 Build 0)  -->

<svg
   xmlns:dc="http://purl.org/dc/elements/1.1/"
   xmlns:cc="http://creativecommons.org/ns#"
   xmlns:rdf="http://www.w3.org/1999/02/22-rdf-syntax-ns#"
   xmlns:svg="http://www.w3.org/2000/svg"
   xmlns="http://www.w3.org/2000/svg"
   xmlns:sodipodi="http://sodipodi.sourceforge.net/DTD/sodipodi-0.dtd"
   xmlns:inkscape="http://www.inkscape.org/namespaces/inkscape"
   version="1.1"
   id="Layer_1"
   x="0px"
   y="0px"
   width="258.333px"
   height="201.506px"
   viewBox="0 0 258.333 201.506"
   enable-background="new 0 0 258.333 201.506"
   xml:space="preserve"
   inkscape:version="0.91 r13725"
   sodipodi:docname="wundergroundLogo_4c.svg"><metadata
     id="metadata4340"><rdf:RDF><cc:Work
         rdf:about=""><dc:format>image/svg+xml</dc:format><dc:type
           rdf:resource="http://purl.org/dc/dcmitype/StillImage" /><dc:title></dc:title></cc:Work></rdf:RDF></metadata><defs
     id="defs4338" /><sodipodi:namedview
     pagecolor="#ffffff"
     bordercolor="#666666"
     borderopacity="1"
     objecttolerance="10"
     gridtolerance="10"
     guidetolerance="10"
     inkscape:pageopacity="0"
     inkscape:pageshadow="2"
     inkscape:window-width="1394"
     inkscape:window-height="929"
     id="namedview4336"
     showgrid="false"
     inkscape:zoom="4.8137525"
     inkscape:cx="129.1665"
     inkscape:cy="100.753"
     inkscape:window-x="293"
     inkscape:window-y="101"
     inkscape:window-maximized="0"
     inkscape:current-layer="Layer_1" /><g
     id="g4240"><g
       id="g4242"><g
         id="g4244"><path
           fill="#19AADB"
           d="M188.108,51.595c5.396,13.024,24.438,13.026,29.831,0l0.293-0.71c1.319-3.656,1.35-7.79-0.254-11.663     L203.025,3.12l-14.954,36.104c-1.607,3.878-1.576,8.017-0.25,11.676L188.108,51.595z"
           id="path4246" /><linearGradient
           id="SVGID_1_"
           gradientUnits="userSpaceOnUse"
           x1="-0.8027"
           y1="84.4702"
           x2="139.674"
           y2="135.5995"><stop
             offset="0.2349"
             style="stop-color:#D51F2A"
             id="stop4249" /><stop
             offset="1"
             style="stop-color:#F68839"
             id="stop4251" /></linearGradient><path
           fill="url(#SVGID_1_)"
           d="M139.066,73.412c-6.855,0-12.75,4.051-15.463,9.882l-0.537,1.295l-9.167,22.132L97.78,67.807     c-5.444-13.149-24.72-13.146-30.164,0.001l-16.134,38.951L35.348,67.807c-3.401-8.212-13.099-12.228-21.31-8.827     C5.827,62.381,1.81,72.078,5.212,80.289l31.142,75.187c5.375,13.316,24.907,13.309,30.258-0.013l16.085-38.832l15.863,38.297     c5.089,14.062,25.605,14.047,30.682-0.017l14.178-34.227l7.549-17.994l5.157-12.293     C156.083,81.009,148.463,73.412,139.066,73.412z"
           id="path4253" /><g
           id="g4255"><linearGradient
             id="SVGID_2_"
             gradientUnits="userSpaceOnUse"
             x1="123.6035"
             y1="111.729"
             x2="253.9307"
             y2="111.729"><stop
               offset="0.4257"
               style="stop-color:#FDB930"
               id="stop4258" /><stop
               offset="0.869"
               style="stop-color:#85C441"
               id="stop4260" /></linearGradient><path
             fill="url(#SVGID_2_)"
             d="M221.37,149.761c-18.021,0-32.63-14.608-32.63-32.629c0-0.294,0.015-0.585,0.022-0.877V90.47      c0-14.629-10.102-27.833-24.242-31.623c-15.342-4.111-31.826,3.745-38.338,18.219l-0.658,1.588l-1.921,4.64      c2.713-5.831,8.607-9.882,15.463-9.882c9.397,0,17.017,7.597,17.06,16.985l0.019-0.044l0.002,26.382      c0,25.638,20.599,47.491,46.234,48.893c25.466,1.392,48.318-17.785,51.284-43.1c0.131-1.118,0.212-2.24,0.266-3.363      C252.88,136.237,238.708,149.761,221.37,149.761z"
             id="path4262" /><linearGradient
             id="SVGID_3_"
             gradientUnits="userSpaceOnUse"
             x1="221.3701"
             y1="149.7607"
             x2="221.3701"
             y2="57.7349"><stop
               offset="0"
               style="stop-color:#19AADB"
               id="stop4265" /><stop
               offset="0.9949"
               style="stop-color:#1756A7"
               id="stop4267" /></linearGradient><path
             fill="url(#SVGID_3_)"
             d="M237.708,57.735c-0.012,0-0.022,0-0.035,0c-8.997,0.01-16.291,7.307-16.291,16.311v10.457v32.27      c0,8.888-7.422,16.309-16.31,16.309c-8.889,0-16.31-7.421-16.31-16.309v-0.519c-0.008,0.292-0.022,0.583-0.022,0.877      c0,18.021,14.608,32.629,32.63,32.629c17.338,0,31.51-13.524,32.561-30.597c0.035-0.741,0.062-1.482,0.064-2.225      c0-0.056,0.005-0.111,0.005-0.167V74.044C254,65.044,246.705,57.747,237.708,57.735z"
             id="path4269" /></g></g><g
         opacity="0.2"
         id="g4271"><linearGradient
           id="SVGID_4_"
           gradientUnits="userSpaceOnUse"
           x1="142.5693"
           y1="73.7383"
           x2="134.0712"
           y2="101.9857"><stop
             offset="0"
             style="stop-color:#231f20;stop-opacity:1"
             id="stop4274" /><stop
             offset="0.8713"
             style="stop-color:#000000;stop-opacity:0.11167513"
             id="stop4276" /><stop
             offset="1"
             style="stop-color:#000000;stop-opacity:0"
             id="stop4278" /></linearGradient><path
           d="M156.126,90.43c-0.043-9.388-7.662-16.985-17.06-16.985c-6.855,0-12.75,4.052-15.463,9.882     l-0.537,1.296l-8.597,20.754h35.385l1.113-2.654L156.126,90.43z"
           id="path4280"
           fill="url(#SVGID_4_)" /></g></g><g
       id="g4282"><g
         id="g4284"><g
           id="g4286"><g
             id="g4288"><path
               fill="#1D2022"
               d="M95.789,197.285c-0.001-0.046-0.009-0.09-0.012-0.136c-0.089-1.359-1.093-2.447-2.056-3.409       c-0.164-0.164-0.428-0.404-0.74-0.681c0.445-0.136,0.89-0.358,1.316-0.71c0.959-0.768,1.478-1.823,1.478-3.167       c0-1.458-0.576-2.629-1.516-3.301c-0.883-0.614-1.996-0.807-3.244-0.807h-4.568c-0.391,0-0.717,0.21-0.905,0.516       c-0.098,0.159-0.17,0.336-0.17,0.54v11.17c0,0.169,0.051,0.322,0.125,0.463c0.177,0.338,0.53,0.574,0.951,0.574       c0.576,0,1.075-0.46,1.075-1.037v-3.973h2.657c0.273,0.208,0.558,0.429,0.846,0.658c1.35,1.077,2.716,2.346,2.716,3.353       c0,0.488,0.442,0.968,0.999,0.991c0.013,0,0.024,0.008,0.038,0.008c0.576,0,1.017-0.46,1.017-0.999       C95.793,197.32,95.789,197.304,95.789,197.285z M91.141,191.493c-0.118,0.005-0.235,0.012-0.357,0.012h-2.936h-0.328v-0.28       v-2.629v-1.698h3.282c0.729,0,1.363,0.077,1.88,0.403c0.557,0.364,0.921,0.959,0.921,1.919c0,0.94-0.403,1.555-0.959,1.9       C92.217,191.375,91.706,191.467,91.141,191.493z"
               id="path4290" /></g></g><path
           fill="#1D2022"
           d="M21.063,185.631c0.115-0.461,0.576-0.729,1.075-0.729c0.595,0,1.094,0.403,1.094,1.037     c0,0.134-0.058,0.307-0.096,0.46l-3.589,10.826c-0.192,0.633-0.691,1.113-1.536,1.113c-0.845,0-1.324-0.48-1.535-1.113     l-2.879-8.253l-2.821,8.253c-0.192,0.633-0.672,1.113-1.536,1.113c-0.845,0-1.324-0.48-1.516-1.113L4.077,186.36     C4.039,186.226,4,186.091,4,185.957c0-0.576,0.48-1.055,1.113-1.055c0.557,0,0.921,0.307,1.056,0.787l3.09,9.866l3.205-9.827     c0.134-0.46,0.48-0.825,1.151-0.825c0.691,0,0.999,0.345,1.133,0.825l3.282,9.827L21.063,185.631z"
           id="path4292" /><path
           fill="#1D2022"
           d="M26.682,196.245h7.428c0.518,0,0.921,0.442,0.921,0.94c0,0.538-0.403,0.96-0.921,0.96h-8.503     c-0.595,0-1.075-0.461-1.075-1.037v-10.998c0-0.576,0.479-1.037,1.075-1.037h8.503c0.518,0,0.921,0.442,0.921,0.96     c0,0.519-0.403,0.94-0.921,0.94h-7.428v4.53h6.238c0.518,0,0.921,0.422,0.921,0.94c0,0.538-0.403,0.96-0.921,0.96h-6.238V196.245     z"
           id="path4294" /><path
           fill="#1D2022"
           d="M44.442,195.208h-5.47l-0.902,2.38c-0.153,0.479-0.479,0.749-1.075,0.749     c-0.652,0-1.017-0.46-1.017-0.979c0-0.134,0.058-0.364,0.115-0.519l4.165-10.844c0.211-0.614,0.614-1.113,1.497-1.113     c0.864,0,1.286,0.519,1.497,1.113l4.127,10.844c0.038,0.135,0.096,0.365,0.096,0.499c0,0.614-0.441,0.999-1.075,0.999     c-0.518,0-0.902-0.269-1.036-0.749L44.442,195.208z M39.528,193.481h4.396l-2.188-5.854L39.528,193.481z"
           id="path4296" /><path
           fill="#1D2022"
           d="M52.532,186.975v10.327c0,0.576-0.499,1.036-1.075,1.036c-0.595,0-1.075-0.46-1.075-1.036v-10.327h-3.589     c-0.499,0-0.921-0.422-0.921-0.94c0-0.518,0.422-0.96,0.921-0.96h9.309c0.519,0,0.941,0.442,0.941,0.96     c0,0.519-0.422,0.94-0.941,0.94H52.532z"
           id="path4298" /><path
           fill="#1D2022"
           d="M58.208,185.938c0-0.576,0.48-1.037,1.075-1.037c0.614,0,1.075,0.46,1.075,1.037v5.546h7.658v-5.546     c0-0.576,0.499-1.037,1.075-1.037c0.614,0,1.075,0.46,1.075,1.037v11.363c0,0.576-0.48,1.036-1.075,1.036     c-0.576,0-1.075-0.46-1.075-1.036v-3.916h-7.658v3.916c0,0.576-0.499,1.036-1.075,1.036c-0.595,0-1.075-0.46-1.075-1.036V185.938     z"
           id="path4300" /><path
           fill="#1D2022"
           d="M74.835,196.245h7.428c0.518,0,0.921,0.442,0.921,0.94c0,0.538-0.403,0.96-0.921,0.96H73.76     c-0.595,0-1.075-0.461-1.075-1.037v-10.998c0-0.576,0.48-1.037,1.075-1.037h8.503c0.518,0,0.921,0.442,0.921,0.96     c0,0.519-0.403,0.94-0.921,0.94h-7.428v4.53h6.238c0.518,0,0.921,0.422,0.921,0.94c0,0.538-0.403,0.96-0.921,0.96h-6.238V196.245     z"
           id="path4302" /></g><g
         id="g4304"><path
           fill="#1D2022"
           d="M113.634,195.267c0.537-0.614,0.806-1.498,0.806-2.61v-6.737c0-0.576,0.48-1.037,1.075-1.037     s1.075,0.46,1.075,1.037v7.044c0,1.497-0.403,2.764-1.209,3.666c-0.959,1.094-2.476,1.689-4.395,1.689     c-1.9,0-3.417-0.595-4.376-1.689c-0.806-0.902-1.209-2.169-1.209-3.666v-7.044c0-0.576,0.479-1.037,1.075-1.037     c0.595,0,1.075,0.46,1.075,1.037v6.737c0,1.113,0.269,1.996,0.806,2.61c0.614,0.71,1.517,1.036,2.63,1.036     C112.117,196.303,113.02,195.977,113.634,195.267z"
           id="path4306" /><path
           fill="#1D2022"
           d="M124.982,192.867c-0.921-0.69-1.823-1.401-2.668-2.169c-0.519-0.46-0.96-0.902-1.324-1.343v7.965     c0,0.538-0.441,0.999-1.018,0.999c-0.576,0-1.037-0.461-1.037-0.999v-11.458c0-0.538,0.461-0.979,1.037-0.979     c0.576,0,1.018,0.46,1.018,0.979c0,1.286,1.977,2.84,4.126,4.472c0.902,0.691,1.804,1.439,2.687,2.207     c0.519,0.442,0.959,0.902,1.325,1.344v-8.023c0-0.538,0.46-0.979,1.036-0.979c0.576,0,1.018,0.441,1.018,0.979v11.458     c0,0.538-0.441,0.999-1.018,0.999c-0.576,0-1.036-0.5-1.036-0.999C129.128,195.938,126.556,194.057,124.982,192.867z"
           id="path4308" /><path
           fill="#1D2022"
           d="M143.439,196.61c-1.479,1.209-3.32,1.516-5.087,1.516h-3.685c-0.596,0-1.075-0.46-1.075-1.036v-10.999     c0-0.575,0.479-1.036,1.075-1.036h3.953c2.093,0,3.974,0.461,5.413,2.035c0.96,1.017,1.555,2.495,1.555,4.491     C145.589,193.922,144.726,195.554,143.439,196.61z M135.742,196.322h2.438c1.479,0,2.745-0.326,3.686-1.113     c0.979-0.806,1.535-1.977,1.535-3.627c0-1.459-0.422-2.514-1.113-3.282c-0.902-0.998-2.303-1.439-3.992-1.439h-2.553V196.322z"
           id="path4310" /><path
           fill="#1D2022"
           d="M149.341,196.226h7.428c0.519,0,0.922,0.442,0.922,0.94c0,0.538-0.403,0.96-0.922,0.96h-8.503     c-0.595,0-1.074-0.46-1.074-1.036v-10.999c0-0.575,0.479-1.036,1.074-1.036h8.503c0.519,0,0.922,0.441,0.922,0.96     c0,0.518-0.403,0.94-0.922,0.94h-7.428v4.529h6.237c0.519,0,0.922,0.422,0.922,0.94c0,0.538-0.403,0.96-0.922,0.96h-6.237     V196.226z"
           id="path4312" /><path
           fill="#1D2022"
           d="M184.198,191.504c0.519,0,0.96,0.326,0.96,1.017c0,1.747-0.71,3.244-1.9,4.262     c-1.113,0.959-2.668,1.536-4.529,1.536c-3.954,0-7.007-2.38-7.007-6.737c0-3.935,3.148-6.699,7.121-6.699     c1.363,0,2.361,0.23,3.244,0.557c0.634,0.23,1.094,0.595,1.094,1.151c0,0.576-0.46,0.998-1.036,0.998     c-0.441,0-0.729-0.269-1.574-0.538c-0.479-0.134-1.036-0.23-1.746-0.23c-2.688,0-4.856,1.996-4.856,4.76     c0,2.879,2.035,4.817,4.837,4.817c0.998,0,1.881-0.25,2.592-0.71c0.767-0.499,1.305-1.267,1.458-2.265h-3.436     c-0.499,0-0.922-0.441-0.922-0.96s0.423-0.959,0.922-0.959H184.198z"
           id="path4314" /><path
           fill="#1D2022"
           d="M205.348,198.318c-3.762,0-6.909-2.822-6.909-6.699c0-3.896,3.147-6.737,6.909-6.737     c3.743,0,6.91,2.841,6.91,6.737C212.258,195.516,209.091,198.318,205.348,198.318z M205.348,186.898     c-2.629,0-4.645,2.092-4.645,4.721c0,2.63,2.016,4.703,4.645,4.703c2.648,0,4.626-2.073,4.626-4.703     C209.974,188.99,207.996,186.898,205.348,186.898z"
           id="path4316" /><path
           fill="#1D2022"
           d="M222.123,195.267c0.537-0.614,0.806-1.498,0.806-2.61v-6.737c0-0.576,0.48-1.037,1.075-1.037     s1.074,0.46,1.074,1.037v7.044c0,1.497-0.402,2.764-1.209,3.666c-0.959,1.094-2.476,1.689-4.395,1.689     c-1.9,0-3.417-0.595-4.377-1.689c-0.806-0.902-1.209-2.169-1.209-3.666v-7.044c0-0.576,0.48-1.037,1.075-1.037     s1.074,0.46,1.074,1.037v6.737c0,1.113,0.269,1.996,0.807,2.61c0.614,0.71,1.517,1.036,2.63,1.036     C220.606,196.303,221.509,195.977,222.123,195.267z"
           id="path4318" /><path
           fill="#1D2022"
           d="M233.471,192.867c-0.921-0.69-1.823-1.401-2.668-2.169c-0.519-0.46-0.96-0.902-1.324-1.343v7.965     c0,0.538-0.441,0.999-1.018,0.999c-0.575,0-1.036-0.461-1.036-0.999v-11.458c0-0.538,0.461-0.979,1.036-0.979     c0.576,0,1.018,0.46,1.018,0.979c0,1.286,1.978,2.84,4.127,4.472c0.902,0.691,1.804,1.439,2.687,2.207     c0.519,0.442,0.96,0.902,1.325,1.344v-8.023c0-0.538,0.46-0.979,1.036-0.979s1.017,0.441,1.017,0.979v11.458     c0,0.538-0.44,0.999-1.017,0.999s-1.036-0.5-1.036-0.999C237.617,195.938,235.045,194.057,233.471,192.867z"
           id="path4320" /><path
           fill="#1D2022"
           d="M251.851,196.61c-1.478,1.209-3.32,1.516-5.087,1.516h-3.685c-0.596,0-1.075-0.46-1.075-1.036v-10.999     c0-0.575,0.479-1.036,1.075-1.036h3.953c2.093,0,3.974,0.461,5.413,2.035c0.96,1.017,1.555,2.495,1.555,4.491     C254,193.922,253.137,195.554,251.851,196.61z M243.998,196.322h2.438c1.479,0,2.744-0.326,3.686-1.113     c0.979-0.806,1.535-1.977,1.535-3.627c0-1.459-0.422-2.514-1.113-3.282c-0.902-0.998-2.304-1.439-3.992-1.439h-2.553V196.322z"
           id="path4322" /><g
           id="g4324"><g
             id="g4326"><path
               fill="#1D2022"
               d="M170.449,197.266c-0.001-0.046-0.009-0.09-0.012-0.136c-0.09-1.36-1.094-2.447-2.056-3.41       c-0.164-0.164-0.428-0.404-0.74-0.68c0.444-0.136,0.89-0.358,1.315-0.71c0.96-0.768,1.478-1.823,1.478-3.167       c0-1.458-0.575-2.63-1.516-3.301c-0.883-0.614-1.996-0.806-3.244-0.806h-4.568c-0.391,0-0.717,0.21-0.904,0.515       c-0.099,0.16-0.17,0.336-0.17,0.541v11.17c0,0.169,0.051,0.322,0.124,0.463c0.178,0.338,0.53,0.574,0.95,0.574       c0.576,0,1.075-0.461,1.075-1.037v-3.973h2.657c0.273,0.208,0.558,0.429,0.846,0.658c1.351,1.077,2.716,2.347,2.716,3.354       c0,0.487,0.441,0.968,0.999,0.99c0.013,0,0.024,0.008,0.038,0.008c0.575,0,1.017-0.461,1.017-0.999       C170.454,197.301,170.449,197.284,170.449,197.266z M165.802,191.473c-0.117,0.005-0.234,0.012-0.357,0.012h-2.935h-0.328       v-0.279v-2.629v-1.698h3.282c0.729,0,1.363,0.077,1.881,0.403c0.557,0.364,0.921,0.959,0.921,1.919       c0,0.941-0.402,1.555-0.959,1.901C166.878,191.355,166.367,191.448,165.802,191.473z"
               id="path4328" /></g></g><g
           id="g4330"><g
             id="g4332"><path
               fill="#1D2022"
               d="M197.188,197.266c-0.001-0.046-0.01-0.09-0.013-0.136c-0.089-1.36-1.093-2.447-2.056-3.41       c-0.163-0.164-0.427-0.404-0.74-0.68c0.445-0.136,0.89-0.358,1.316-0.71c0.96-0.768,1.478-1.823,1.478-3.167       c0-1.458-0.576-2.63-1.517-3.301c-0.883-0.614-1.996-0.806-3.243-0.806h-4.568c-0.391,0-0.717,0.21-0.905,0.515       c-0.098,0.16-0.17,0.336-0.17,0.541v11.17c0,0.169,0.052,0.322,0.125,0.463c0.177,0.338,0.53,0.574,0.95,0.574       c0.576,0,1.075-0.461,1.075-1.037v-3.973h2.657c0.272,0.208,0.558,0.429,0.846,0.658c1.35,1.077,2.716,2.347,2.716,3.354       c0,0.487,0.441,0.968,0.998,0.99c0.014,0,0.024,0.008,0.038,0.008c0.576,0,1.018-0.461,1.018-0.999       C197.193,197.301,197.188,197.284,197.188,197.266z M192.541,191.473c-0.118,0.005-0.234,0.012-0.357,0.012h-2.936h-0.327       v-0.279v-2.629v-1.698h3.282c0.729,0,1.362,0.077,1.881,0.403c0.557,0.364,0.921,0.959,0.921,1.919       c0,0.941-0.403,1.555-0.959,1.901C193.616,191.355,193.105,191.448,192.541,191.473z"
               id="path4334" /></g></g></g></g></g></svg>