<?xml version="1.0" encoding="UTF-8" standalone="no"?>
<svg
   xmlns:dc="http://purl.org/dc/elements/1.1/"
   xmlns:cc="http://creativecommons.org/ns#"
   xmlns:rdf="http://www.w3.org/1999/02/22-rdf-syntax-ns#"
   xmlns:svg="http://www.w3.org/2000/svg"
   xmlns="http://www.w3.org/2000/svg"
   xml:space="preserve"
   style="enable-background:new 0 0 429.667 96.667;"
   viewBox="0 0 429.667 96.667"
   height="96.667px"
   width="429.667px"
   y="0px"
   x="0px"
   id="Layer_1"
   version="1.1"><metadata
     id="metadata4237"><rdf:RDF><cc:Work
         rdf:about=""><dc:format>image/svg+xml</dc:format><dc:type
           rdf:resource="http://purl.org/dc/dcmitype/StillImage" /><dc:title></dc:title></cc:Work></rdf:RDF></metadata><defs
     id="defs4235" /><g
     id="g4137"><g
       id="g4139"><g
         id="g4141"><path
           id="path4143"
           d="M104.782,29.055c2.932,7.079,13.283,7.081,16.214,0l0.16-0.386     c0.717-1.987,0.733-4.234-0.138-6.339L112.89,2.706l-8.129,19.625c-0.874,2.108-0.856,4.358-0.135,6.347L104.782,29.055z"
           style="fill:#19AADB;" /><linearGradient
           y2="74.7166"
           x2="78.454"
           y1="46.9248"
           x1="2.0967"
           gradientUnits="userSpaceOnUse"
           id="SVGID_1_"><stop
             id="stop4146"
             style="stop-color:#D51F2A"
             offset="0.2349" /><stop
             id="stop4148"
             style="stop-color:#F68839"
             offset="1" /></linearGradient><path
           id="path4150"
           d="M78.124,40.914c-3.726,0-6.93,2.203-8.405,5.372l-0.292,0.704l-4.983,12.03l-8.762-21.153     c-2.959-7.147-13.437-7.146-16.396,0.001l-8.77,21.172l-8.77-21.173c-1.848-4.463-7.12-6.646-11.583-4.798     c-4.463,1.849-6.646,7.12-4.797,11.583l16.928,40.869c2.921,7.238,13.539,7.234,16.447-0.007l8.743-21.107l8.623,20.817     c2.767,7.644,13.918,7.635,16.677-0.009l7.707-18.605l4.103-9.781l2.803-6.682C87.374,45.044,83.232,40.914,78.124,40.914z"
           style="fill:url(#SVGID_1_);" /><g
           id="g4152"><linearGradient
             y2="61.7417"
             x2="140.5601"
             y1="61.7417"
             x1="69.7192"
             gradientUnits="userSpaceOnUse"
             id="SVGID_2_"><stop
               id="stop4155"
               style="stop-color:#FDB930"
               offset="0.4257" /><stop
               id="stop4157"
               style="stop-color:#85C441"
               offset="0.869" /></linearGradient><path
             id="path4159"
             d="M122.862,82.415c-9.796,0-17.736-7.94-17.736-17.736c0-0.16,0.008-0.318,0.012-0.478      V50.187c0-7.952-5.491-15.129-13.177-17.189c-8.339-2.235-17.299,2.035-20.839,9.903l-0.357,0.863l-1.044,2.522      c1.475-3.169,4.679-5.372,8.405-5.372c5.108,0,9.25,4.13,9.273,9.232l0.011-0.024l0,14.34c0,13.936,11.197,25.814,25.131,26.576      c13.843,0.757,26.264-9.667,27.876-23.427c0.071-0.607,0.115-1.217,0.145-1.828C139.989,75.063,132.286,82.415,122.862,82.415z"
             style="fill:url(#SVGID_2_);" /><linearGradient
             y2="32.3926"
             x2="122.8618"
             y1="82.4146"
             x1="122.8618"
             gradientUnits="userSpaceOnUse"
             id="SVGID_3_"><stop
               id="stop4162"
               style="stop-color:#19AADB"
               offset="0" /><stop
               id="stop4164"
               style="stop-color:#1756A7"
               offset="0.9949" /></linearGradient><path
             id="path4166"
             d="M131.742,32.393c-0.006,0-0.012,0-0.019,0c-4.891,0.005-8.855,3.972-8.855,8.866v5.684      v17.541c0,4.832-4.034,8.865-8.865,8.865c-4.832,0-8.865-4.034-8.865-8.865v-0.282c-0.004,0.159-0.012,0.317-0.012,0.478      c0,9.795,7.94,17.736,17.736,17.736c9.424,0,17.127-7.351,17.698-16.631c0.02-0.403,0.034-0.806,0.035-1.209      c0-0.03,0.003-0.061,0.003-0.091V41.258C140.598,36.366,136.633,32.399,131.742,32.393z"
             style="fill:url(#SVGID_3_);" /></g></g><g
         id="g4168"
         style="opacity:0.2;"><linearGradient
           y2="56.4461"
           x2="75.4082"
           y1="41.0923"
           x1="80.0273"
           gradientUnits="userSpaceOnUse"
           id="SVGID_4_"><stop
             id="stop4171"
             style="stop-color:#000000;stop-opacity:1"
             offset="0" /><stop
             id="stop4173"
             style="stop-color:#f3f3f4;stop-opacity:0.208"
             offset="0.8713" /><stop
             id="stop4175"
             style="stop-color:#ffffff;stop-opacity:0"
             offset="1" /></linearGradient><path
           id="path4177"
           d="M87.397,50.165c-0.023-5.103-4.165-9.232-9.273-9.232c-3.726,0-6.93,2.202-8.405,5.372     l-0.292,0.704l-4.673,11.281h19.234l0.605-1.443L87.397,50.165z"
           style="fill:url(#SVGID_4_);" /></g></g><g
       id="g4179"><g
         id="g4181"><g
           id="g4183"><g
             id="g4185"><path
               id="path4187"
               d="M322.938,54.749c-0.001-0.083-0.017-0.162-0.021-0.244c-0.16-2.44-1.962-4.392-3.689-6.12       c-0.294-0.293-0.768-0.726-1.328-1.221c0.799-0.244,1.596-0.643,2.361-1.275c1.723-1.378,2.652-3.272,2.652-5.685       c0-2.618-1.033-4.72-2.722-5.925c-1.584-1.102-3.583-1.447-5.822-1.447h-8.199c-0.701,0-1.287,0.377-1.624,0.925       c-0.177,0.286-0.305,0.604-0.305,0.97v20.05c0,0.304,0.092,0.579,0.224,0.831c0.317,0.606,0.951,1.03,1.705,1.03       c1.033,0,1.93-0.827,1.93-1.861v-7.131h4.77c0.49,0.372,1.001,0.769,1.518,1.181c2.424,1.933,4.875,4.211,4.875,6.019       c0,0.875,0.793,1.737,1.792,1.777c0.024,0.001,0.044,0.015,0.068,0.015c1.033,0,1.825-0.827,1.825-1.792       C322.947,54.813,322.939,54.782,322.938,54.749z M314.597,44.352c-0.212,0.009-0.421,0.021-0.642,0.021h-5.269h-0.588v-0.501       v-4.719v-3.048h5.892c1.309,0,2.445,0.138,3.375,0.724c1,0.654,1.654,1.722,1.654,3.444c0,1.688-0.724,2.791-1.723,3.411       C316.528,44.14,315.611,44.306,314.597,44.352z"
               style="fill:#1D2022;" /></g></g><path
           id="path4189"
           d="M188.814,33.832c0.207-0.828,1.033-1.31,1.929-1.31c1.068,0,1.964,0.724,1.964,1.861     c0,0.241-0.104,0.551-0.173,0.826l-6.442,19.431c-0.345,1.137-1.241,1.999-2.756,1.999c-1.516,0-2.378-0.862-2.756-1.999     l-5.168-14.813l-5.064,14.813c-0.344,1.137-1.206,1.999-2.756,1.999c-1.516,0-2.376-0.862-2.721-1.999l-6.546-19.499     c-0.068-0.241-0.138-0.483-0.138-0.724c0-1.034,0.861-1.895,1.999-1.895c0.999,0,1.654,0.551,1.895,1.413l5.547,17.708     l5.753-17.639c0.241-0.827,0.861-1.482,2.067-1.482c1.241,0,1.792,0.621,2.033,1.482l5.892,17.639L188.814,33.832z"
           style="fill:#1D2022;" /><path
           id="path4191"
           d="M198.898,52.882h13.333c0.93,0,1.654,0.793,1.654,1.688c0,0.965-0.725,1.723-1.654,1.723h-15.262     c-1.068,0-1.929-0.827-1.929-1.86V34.692c0-1.033,0.861-1.86,1.929-1.86h15.262c0.93,0,1.654,0.792,1.654,1.723     c0,0.93-0.725,1.688-1.654,1.688h-13.333v8.13h11.197c0.93,0,1.654,0.758,1.654,1.688c0,0.965-0.725,1.723-1.654,1.723h-11.197     V52.882z"
           style="fill:#1D2022;" /><path
           id="path4193"
           d="M230.777,51.021h-9.819l-1.619,4.272c-0.275,0.86-0.861,1.344-1.929,1.344     c-1.171,0-1.826-0.827-1.826-1.757c0-0.241,0.104-0.654,0.207-0.931l7.476-19.464c0.379-1.103,1.103-1.998,2.687-1.998     c1.552,0,2.309,0.93,2.688,1.998l7.407,19.464c0.068,0.242,0.172,0.655,0.172,0.896c0,1.103-0.792,1.792-1.929,1.792     c-0.931,0-1.619-0.483-1.86-1.344L230.777,51.021z M221.958,47.921h7.889l-3.928-10.507L221.958,47.921z"
           style="fill:#1D2022;" /><path
           id="path4195"
           d="M245.296,36.243v18.535c0,1.033-0.896,1.86-1.929,1.86c-1.068,0-1.93-0.827-1.93-1.86V36.243     h-6.442c-0.896,0-1.653-0.758-1.653-1.688c0-0.931,0.758-1.723,1.653-1.723h16.708c0.931,0,1.688,0.792,1.688,1.723     c0,0.93-0.758,1.688-1.688,1.688H245.296z"
           style="fill:#1D2022;" /><path
           id="path4197"
           d="M255.487,34.383c0-1.034,0.861-1.861,1.929-1.861c1.103,0,1.93,0.827,1.93,1.861v9.955h13.745     v-9.955c0-1.034,0.896-1.861,1.93-1.861c1.103,0,1.929,0.827,1.929,1.861v20.395c0,1.033-0.861,1.86-1.929,1.86     c-1.033,0-1.93-0.827-1.93-1.86v-7.028h-13.745v7.028c0,1.033-0.896,1.86-1.93,1.86c-1.067,0-1.929-0.827-1.929-1.86V34.383z"
           style="fill:#1D2022;" /><path
           id="path4199"
           d="M285.33,52.882h13.332c0.93,0,1.654,0.793,1.654,1.688c0,0.965-0.725,1.723-1.654,1.723H283.4     c-1.067,0-1.929-0.827-1.929-1.86V34.692c0-1.033,0.861-1.86,1.929-1.86h15.262c0.93,0,1.654,0.792,1.654,1.723     c0,0.93-0.725,1.688-1.654,1.688H285.33v8.13h11.196c0.93,0,1.654,0.758,1.654,1.688c0,0.965-0.725,1.723-1.654,1.723H285.33     V52.882z"
           style="fill:#1D2022;" /></g><g
         id="g4201"><path
           id="path4203"
           d="M172.967,85.6c0.964-1.102,1.446-2.688,1.446-4.685V68.823c0-1.034,0.862-1.861,1.93-1.861     s1.929,0.827,1.929,1.861v12.644c0,2.687-0.723,4.961-2.17,6.58c-1.722,1.964-4.444,3.031-7.889,3.031     c-3.411,0-6.133-1.067-7.855-3.031c-1.446-1.619-2.17-3.893-2.17-6.58V68.823c0-1.034,0.861-1.861,1.93-1.861     c1.067,0,1.929,0.827,1.929,1.861v12.092c0,1.998,0.482,3.583,1.447,4.685c1.103,1.274,2.722,1.86,4.72,1.86     C170.245,87.46,171.865,86.875,172.967,85.6z"
           style="fill:#1D2022;" /><path
           id="path4205"
           d="M193.335,81.293c-1.653-1.24-3.272-2.515-4.789-3.893c-0.93-0.827-1.723-1.619-2.376-2.411v14.296     c0,0.965-0.792,1.792-1.827,1.792c-1.033,0-1.86-0.827-1.86-1.792V68.719c0-0.965,0.827-1.757,1.86-1.757     c1.034,0,1.827,0.827,1.827,1.757c0,2.309,3.548,5.098,7.407,8.027c1.619,1.239,3.238,2.583,4.823,3.961     c0.93,0.793,1.723,1.619,2.377,2.413V68.719c0-0.965,0.827-1.757,1.86-1.757c1.033,0,1.825,0.792,1.825,1.757v20.566     c0,0.965-0.792,1.792-1.825,1.792c-1.034,0-1.86-0.896-1.86-1.792C200.777,86.806,196.161,83.429,193.335,81.293z"
           style="fill:#1D2022;" /><path
           id="path4207"
           d="M226.464,88.012c-2.652,2.17-5.96,2.721-9.13,2.721h-6.614c-1.068,0-1.93-0.827-1.93-1.86V69.132     c0-1.033,0.861-1.86,1.93-1.86h7.097c3.755,0,7.132,0.827,9.715,3.652c1.723,1.825,2.791,4.479,2.791,8.062     C230.323,83.188,228.773,86.117,226.464,88.012z M212.649,87.495h4.375c2.653,0,4.927-0.586,6.615-1.999     c1.757-1.447,2.756-3.548,2.756-6.511c0-2.619-0.758-4.514-1.998-5.892c-1.619-1.792-4.135-2.584-7.165-2.584h-4.583V87.495z"
           style="fill:#1D2022;" /><path
           id="path4209"
           d="M237.057,87.322h13.333c0.93,0,1.653,0.793,1.653,1.688c0,0.965-0.724,1.723-1.653,1.723h-15.262     c-1.068,0-1.93-0.827-1.93-1.86V69.132c0-1.033,0.861-1.86,1.93-1.86h15.262c0.93,0,1.653,0.792,1.653,1.723     c0,0.93-0.724,1.688-1.653,1.688h-13.333v8.13h11.196c0.931,0,1.653,0.758,1.653,1.688c0,0.965-0.723,1.723-1.653,1.723h-11.196     V87.322z"
           style="fill:#1D2022;" /><path
           id="path4211"
           d="M299.623,78.848c0.931,0,1.723,0.585,1.723,1.826c0,3.135-1.274,5.822-3.411,7.648     c-1.997,1.722-4.788,2.756-8.13,2.756c-7.097,0-12.575-4.272-12.575-12.092c0-7.063,5.65-12.024,12.781-12.024     c2.446,0,4.238,0.414,5.822,1c1.138,0.413,1.964,1.068,1.964,2.067c0,1.033-0.826,1.792-1.859,1.792     c-0.793,0-1.311-0.483-2.825-0.965c-0.861-0.241-1.86-0.413-3.136-0.413c-4.822,0-8.716,3.583-8.716,8.544     c0,5.167,3.652,8.646,8.682,8.646c1.792,0,3.376-0.448,4.651-1.274c1.377-0.896,2.342-2.274,2.618-4.065h-6.167     c-0.896,0-1.654-0.792-1.654-1.723s0.759-1.723,1.654-1.723H299.623z"
           style="fill:#1D2022;" /><path
           id="path4213"
           d="M337.583,91.078c-6.752,0-12.401-5.064-12.401-12.023c0-6.993,5.649-12.092,12.401-12.092     c6.719,0,12.403,5.099,12.403,12.092C349.987,86.048,344.302,91.078,337.583,91.078z M337.583,70.58     c-4.719,0-8.336,3.755-8.336,8.475c0,4.72,3.617,8.441,8.336,8.441c4.755,0,8.303-3.721,8.303-8.441     C345.886,74.335,342.338,70.58,337.583,70.58z"
           style="fill:#1D2022;" /><path
           id="path4215"
           d="M367.695,85.6c0.964-1.102,1.445-2.688,1.445-4.685V68.823c0-1.034,0.862-1.861,1.93-1.861     s1.93,0.827,1.93,1.861v12.644c0,2.687-0.724,4.961-2.171,6.58c-1.722,1.964-4.444,3.031-7.889,3.031     c-3.411,0-6.133-1.067-7.855-3.031c-1.446-1.619-2.17-3.893-2.17-6.58V68.823c0-1.034,0.861-1.861,1.929-1.861     c1.068,0,1.93,0.827,1.93,1.861v12.092c0,1.998,0.482,3.583,1.447,4.685c1.103,1.274,2.722,1.86,4.72,1.86     C364.972,87.46,366.592,86.875,367.695,85.6z"
           style="fill:#1D2022;" /><path
           id="path4217"
           d="M388.063,81.293c-1.654-1.24-3.272-2.515-4.789-3.893c-0.931-0.827-1.723-1.619-2.377-2.411     v14.296c0,0.965-0.792,1.792-1.826,1.792c-1.033,0-1.86-0.827-1.86-1.792V68.719c0-0.965,0.827-1.757,1.86-1.757     c1.034,0,1.826,0.827,1.826,1.757c0,2.309,3.549,5.098,7.407,8.027c1.619,1.239,3.237,2.583,4.822,3.961     c0.931,0.793,1.723,1.619,2.378,2.413V68.719c0-0.965,0.826-1.757,1.859-1.757c1.034,0,1.826,0.792,1.826,1.757v20.566     c0,0.965-0.792,1.792-1.826,1.792c-1.033,0-1.859-0.896-1.859-1.792C395.504,86.806,390.888,83.429,388.063,81.293z"
           style="fill:#1D2022;" /><path
           id="path4219"
           d="M421.051,88.012c-2.652,2.17-5.959,2.721-9.129,2.721h-6.615c-1.067,0-1.929-0.827-1.929-1.86     V69.132c0-1.033,0.861-1.86,1.929-1.86h7.097c3.756,0,7.133,0.827,9.716,3.652c1.723,1.825,2.79,4.479,2.79,8.062     C424.91,83.188,423.36,86.117,421.051,88.012z M406.958,87.495h4.375c2.653,0,4.926-0.586,6.614-1.999     c1.758-1.447,2.756-3.548,2.756-6.511c0-2.619-0.757-4.514-1.997-5.892c-1.62-1.792-4.135-2.584-7.166-2.584h-4.582V87.495z"
           style="fill:#1D2022;" /><g
           id="g4221"><g
             id="g4223"><path
               id="path4225"
               d="M274.945,89.189c-0.002-0.083-0.017-0.163-0.022-0.244c-0.159-2.44-1.961-4.392-3.688-6.12       c-0.294-0.293-0.768-0.726-1.329-1.221c0.799-0.244,1.597-0.643,2.361-1.275c1.724-1.378,2.652-3.272,2.652-5.685       c0-2.618-1.033-4.72-2.721-5.925c-1.585-1.103-3.583-1.447-5.822-1.447h-8.199c-0.702,0-1.287,0.377-1.625,0.925       c-0.176,0.286-0.305,0.604-0.305,0.97v20.05c0,0.304,0.092,0.578,0.224,0.831c0.317,0.607,0.952,1.03,1.706,1.03       c1.033,0,1.929-0.827,1.929-1.861v-7.131h4.77c0.49,0.373,1.002,0.77,1.519,1.182c2.423,1.933,4.875,4.211,4.875,6.019       c0,0.875,0.792,1.737,1.792,1.778c0.023,0.001,0.044,0.014,0.067,0.014c1.034,0,1.826-0.827,1.826-1.792       C274.954,89.253,274.946,89.222,274.945,89.189z M266.604,78.792c-0.212,0.01-0.422,0.021-0.642,0.021h-5.269h-0.589v-0.501       v-4.719v-3.048h5.892c1.31,0,2.446,0.138,3.376,0.724c0.999,0.654,1.653,1.722,1.653,3.444c0,1.688-0.723,2.791-1.722,3.411       C268.534,78.58,267.617,78.746,266.604,78.792z"
               style="fill:#1D2022;" /></g></g><g
           id="g4227"><g
             id="g4229"><path
               id="path4231"
               d="M322.938,89.189c-0.001-0.083-0.017-0.163-0.021-0.244c-0.16-2.44-1.962-4.392-3.689-6.12       c-0.294-0.293-0.768-0.726-1.328-1.221c0.799-0.244,1.596-0.643,2.361-1.275c1.723-1.378,2.652-3.272,2.652-5.685       c0-2.618-1.033-4.72-2.722-5.925c-1.584-1.103-3.583-1.447-5.822-1.447h-8.199c-0.701,0-1.287,0.377-1.624,0.925       c-0.177,0.286-0.305,0.604-0.305,0.97v20.05c0,0.304,0.092,0.578,0.224,0.831c0.317,0.607,0.951,1.03,1.705,1.03       c1.033,0,1.93-0.827,1.93-1.861v-7.131h4.77c0.49,0.373,1.001,0.77,1.518,1.182c2.424,1.933,4.875,4.211,4.875,6.019       c0,0.875,0.793,1.737,1.792,1.778c0.024,0.001,0.044,0.014,0.068,0.014c1.033,0,1.825-0.827,1.825-1.792       C322.947,89.253,322.939,89.222,322.938,89.189z M314.597,78.792c-0.212,0.01-0.421,0.021-0.642,0.021h-5.269h-0.588v-0.501       v-4.719v-3.048h5.892c1.309,0,2.445,0.138,3.375,0.724c1,0.654,1.654,1.722,1.654,3.444c0,1.688-0.724,2.791-1.723,3.411       C316.528,78.58,315.611,78.746,314.597,78.792z"
               style="fill:#1D2022;" /></g></g></g></g></g></svg>